<?xml version="1.0" encoding="UTF-8" standalone="no"?>
<!-- Created with Inkscape (http://www.inkscape.org/) -->

<svg
   xmlns:dc="http://purl.org/dc/elements/1.1/"
   xmlns:cc="http://creativecommons.org/ns#"
   xmlns:rdf="http://www.w3.org/1999/02/22-rdf-syntax-ns#"
   xmlns:svg="http://www.w3.org/2000/svg"
   xmlns="http://www.w3.org/2000/svg"
   xmlns:sodipodi="http://sodipodi.sourceforge.net/DTD/sodipodi-0.dtd"
   xmlns:inkscape="http://www.inkscape.org/namespaces/inkscape"
   width="205.2"
   height="205.2"
   id="svg2991"
   version="1.1"
   inkscape:version="0.48.5 r10040"
   sodipodi:docname="futel_logo_black_sticker_2x2.svg">
  <defs
     id="defs2993" />
  <sodipodi:namedview
     id="base"
     pagecolor="#ffffff"
     bordercolor="#666666"
     borderopacity="1.0"
     inkscape:pageopacity="0.0"
     inkscape:pageshadow="2"
     inkscape:zoom="2.8"
     inkscape:cx="75.563421"
     inkscape:cy="106.02302"
     inkscape:document-units="px"
     inkscape:current-layer="layer1"
     showgrid="true"
     units="in"
     inkscape:window-width="1366"
     inkscape:window-height="744"
     inkscape:window-x="0"
     inkscape:window-y="24"
     inkscape:window-maximized="1">
    <inkscape:grid
       type="xygrid"
       id="grid3020"
       empspacing="5"
       visible="true"
       enabled="true"
       snapvisiblegridlinesonly="true" />
  </sodipodi:namedview>
  <metadata
     id="metadata2996">
    <rdf:RDF>
      <cc:Work
         rdf:about="">
        <dc:format>image/svg+xml</dc:format>
        <dc:type
           rdf:resource="http://purl.org/dc/dcmitype/StillImage" />
        <dc:title></dc:title>
      </cc:Work>
    </rdf:RDF>
  </metadata>
  <g
     inkscape:label="Layer 1"
     inkscape:groupmode="layer"
     id="layer1"
     transform="translate(0,-847.15975)">
    <g
       id="g12"
       transform="matrix(0.02025,0,0,-0.02025,21.599998,1030.7597)">
      <path
         d="m 7279.86,1421.83 c 0,-14.46 -4.65,-26.9 -13.86,-36.99 -9.42,-10.34 -22.17,-15.8 -36.89,-15.8 l -878.13,0 c -33.56,0 -52.8,19.24 -52.8,52.79 l 0,1345.66 c 0,33.55 19.24,52.78 52.8,52.78 l 280.51,0 c 33.55,0 52.79,-19.23 52.79,-52.78 l 0,-1002.13 c 0,-6.82 2.08,-11.88 6.53,-15.93 4.86,-4.44 10.55,-6.49 17.93,-6.49 l 520.37,0 c 14.67,0 27.42,-5.45 36.87,-15.77 9.23,-10.16 13.88,-22.6 13.88,-37.01 l 0,-268.33 z M 6126.12,5412.41 c 0,-34.33 -6.9,-67.38 -20.51,-98.22 -13.53,-30.59 -31.57,-57.62 -53.61,-80.36 -22.26,-22.98 -49.16,-41.15 -79.92,-54.03 -30.75,-12.87 -63.71,-19.39 -97.96,-19.39 l -719.57,0 c -34.28,0 -67.24,6.52 -97.97,19.39 -30.73,12.86 -57.92,30.98 -80.78,53.88 -22.86,22.82 -40.99,50 -53.87,80.76 -12.86,30.73 -19.38,63.69 -19.38,97.97 l 0,1146.45 c 0,33.55 19.24,52.8 52.79,52.8 l 280.51,0 c 33.55,0 52.79,-19.25 52.79,-52.8 l 0,-1002.13 c 0,-6.83 2.07,-11.89 6.53,-15.91 4.86,-4.45 10.54,-6.5 17.93,-6.5 l 402.48,0 c 7.09,0 12.3,1.91 16.4,6.01 4.1,4.1 6.02,9.32 6.02,16.4 l 0,1002.13 c 0,14.69 5.15,27.29 15.33,37.46 10.18,10.17 22.77,15.34 37.45,15.34 l 282.55,0 c 14.64,0 27.24,-5.16 37.45,-15.31 10.2,-10.27 15.34,-22.86 15.34,-37.49 l 0,-1146.45 z M 5912.68,2511.37 c 0,-14.72 -5.46,-27.48 -15.8,-36.9 -10.09,-9.21 -22.54,-13.86 -36.99,-13.86 l -676.94,0 -0.02,-211.46 575.32,-0.06 c 14.65,0 27.26,-5.15 37.45,-15.32 10.2,-10.23 15.34,-22.83 15.34,-37.47 l 0,-203.27 c 0,-33.56 -19.23,-52.8 -52.79,-52.8 l -575.3,0 -0.02,-211.5 676.96,-0.02 c 14.66,0 27.26,-5.15 37.45,-15.31 10.19,-10.25 15.34,-22.84 15.34,-37.47 l 0,-254.1 c 0,-14.67 -5.15,-27.27 -15.32,-37.46 -10.18,-10.17 -22.78,-15.33 -37.47,-15.33 l -811.05,0 c -34.25,0 -67.21,6.53 -97.96,19.39 -30.75,12.86 -57.93,30.99 -80.78,53.88 -22.89,22.85 -41.02,50.02 -53.87,80.78 -12.87,30.73 -19.39,63.68 -19.39,97.95 l 0,947.24 c 0,34.24 6.52,67.2 19.39,97.96 12.87,30.75 31.05,57.65 54.03,79.91 22.74,22.05 49.78,40.09 80.36,53.61 30.84,13.62 63.88,20.51 98.22,20.51 l 811.05,0 c 14.65,0 27.25,-5.14 37.44,-15.3 10.2,-10.24 15.35,-22.84 15.35,-37.48 l 0,-256.12 z M 4639,6290.54 c 0,-14.71 -5.15,-27.31 -15.34,-37.47 -10.15,-10.16 -22.75,-15.33 -37.44,-15.33 l -676.95,0 0,-211.49 512.3,-0.02 c 14.68,0 27.43,-5.46 36.89,-15.79 9.22,-10.17 13.86,-22.6 13.86,-37 l 0,-254.09 c 0,-14.44 -4.65,-26.88 -13.83,-36.98 -9.45,-10.35 -22.21,-15.82 -36.92,-15.82 l -512.29,0 -0.01,-453.35 c 0,-33.55 -19.25,-52.79 -52.8,-52.79 l -280.51,0 c -33.56,0 -52.8,19.24 -52.8,52.79 l 0,1345.66 c 0,33.55 19.24,52.8 52.8,52.8 l 1010.26,0 c 14.64,0 27.24,-5.16 37.43,-15.32 10.21,-10.23 15.35,-22.83 15.35,-37.48 l 0,-268.32 z M 4496.72,2499.17 c 0,-14.67 -5.16,-27.28 -15.32,-37.46 -10.19,-10.18 -22.79,-15.33 -37.46,-15.33 l -288.66,0 c -7.36,0 -13.05,-2.06 -17.91,-6.48 -4.45,-4.06 -6.54,-9.13 -6.54,-15.94 l 0,-1002.13 c 0,-14.43 -4.66,-26.87 -13.84,-36.97 -9.45,-10.36 -22.2,-15.82 -36.91,-15.82 l -282.55,0 c -14.72,0 -27.33,5.16 -37.49,15.34 -10.14,10.11 -15.31,22.72 -15.31,37.45 l 0,1002.13 c 0,7.07 -1.92,12.29 -6.04,16.43 -4.09,4.06 -9.31,5.99 -16.38,5.99 l -288.64,0 c -14.73,0 -27.34,5.16 -37.48,15.35 -10.15,10.12 -15.32,22.72 -15.32,37.44 l 0,268.32 c 0,33.55 19.25,52.78 52.8,52.78 l 1010.27,0 c 14.64,0 27.23,-5.14 37.43,-15.3 10.2,-10.23 15.35,-22.83 15.35,-37.48 l 0,-268.32 z M 3069.23,1446.41 c -0.76,-118.22 -72.63,-177.74 -190.31,-178.83 -115.49,-1.07 -231.03,-2 -346.49,0.13 -143.07,2.64 -202.78,59.69 -204.83,203.31 -3.12,218.13 -0.82,436.33 -0.82,654.5 -0.2,209.61 -1.86,419.24 0.34,628.83 1.7,161.79 54.78,213.59 217.07,216.18 115.46,1.85 231.04,2.27 346.47,-0.53 112.48,-2.73 177.45,-63.88 178.09,-176.13 2.59,-449.14 3.38,-898.32 0.48,-1347.46 z m -741.1,5109.05 c 0.86,118.27 72.15,177.3 190.72,177.29 119.77,0 239.6,2.21 359.32,-0.61 127.93,-3 188.03,-60.22 190.26,-190.06 3.81,-222.37 1.05,-444.86 1.05,-667.31 0.14,0 0.28,0 0.41,0 0,-209.61 1.66,-419.24 -0.53,-628.82 -1.69,-162.2 -53.99,-212.39 -217.48,-214.21 -115.48,-1.29 -231.01,-1.08 -346.49,0.65 -114.14,1.7 -176.95,64.29 -177.58,175.62 -2.52,449.14 -2.92,898.32 0.32,1347.45 z M 2206.49,1383.7 c -296.37,-78.69 -667.28,51.46 -842.07,302.75 C 1117,2042.18 1008.15,2452.25 935.797,2870.26 786.09,3735.2 795.195,4599 1008.79,5453.82 c 49.42,197.78 120.41,392.66 203.51,579.04 204.92,459.65 470.73,608.44 987.92,568.08 0,-479.17 0,-959.3 0,-1445.4 -291.85,-36.71 -430.21,-244.58 -518.02,-490.31 -157.16,-439.78 -165.87,-888.52 -29.53,-1335.38 95.11,-311.74 247.17,-449.43 553.82,-520.38 0,-479.55 0,-953.16 0,-1425.77 z M 7400,8000 600,8000 C 268.629,8000 0,7731.37 0,7400 L 0,600 C 0,268.629 268.629,0 600,0 l 6800,0 c 331.37,0 600,268.629 600,600 l 0,6800 c 0,331.37 -268.63,600 -600,600"
         style="fill:#231f20;fill-opacity:1;fill-rule:nonzero;stroke:none"
         id="path14"
         inkscape:connector-curvature="0" />
    </g>
  </g>
</svg>
